<svg width="0" height="0" class="hidden">
  <symbol xmlns="http://www.w3.org/2000/svg" viewBox="0 0 25 25" id="icon-linkedin">
    <path d="M12.4999 0C5.59633 0 0 5.59635 0 12.5C0 19.4036 5.59633 25 12.4999 25C19.4036 25 24.9999 19.4036 24.9999 12.5C24.9999 5.59635 19.4036 0 12.4999 0ZM9.44006 17.681H6.90882V9.53516H9.44006V17.681ZM8.15882 8.53516C7.35934 8.53516 6.84242 7.96875 6.84242 7.26823C6.84242 6.55338 7.37496 6.00391 8.19137 6.00391C9.00777 6.00391 9.50777 6.55338 9.52339 7.26823C9.52339 7.96875 9.00777 8.53516 8.15882 8.53516ZM18.6848 17.681H16.1536V13.1667C16.1536 12.1159 15.7864 11.4023 14.871 11.4023C14.1718 11.4023 13.7564 11.8854 13.5729 12.3503C13.5051 12.5156 13.4882 12.75 13.4882 12.9831V17.6797H10.9557V12.1328C10.9557 11.1159 10.9231 10.2656 10.8893 9.53385H13.0885L13.2044 10.6654H13.2551C13.5885 10.1341 14.4049 9.35026 15.7708 9.35026C17.4361 9.35026 18.6848 10.4661 18.6848 12.8646V17.681Z"></path>
  </symbol>
  <symbol xmlns="http://www.w3.org/2000/svg" viewBox="0 0 26 25" id="icon-git">
    <path d="M12.8414 1.07431e-06C5.74649 -0.00286787 0 5.74076 0 12.8299C0 18.4359 3.59479 23.2012 8.60109 24.9512C9.2753 25.1205 9.17201 24.6414 9.17201 24.3143V22.0909C5.27886 22.547 5.12106 19.9707 4.85999 19.5404C4.3321 18.6395 3.08411 18.41 3.45708 17.9797C4.34358 17.5235 5.2473 18.0944 6.29446 19.6408C7.05186 20.7626 8.52937 20.5732 9.27816 20.3867C9.44169 19.7125 9.79171 19.1101 10.2737 18.6424C6.23995 17.9194 4.55875 15.4579 4.55875 12.5316C4.55875 11.1114 5.02639 9.80606 5.94445 8.75316C5.35919 7.01744 5.99896 5.53133 6.08503 5.31042C7.75189 5.16124 9.48473 6.5039 9.61957 6.61005C10.5663 6.35472 11.6479 6.21988 12.8586 6.21988C14.075 6.21988 15.1595 6.36046 16.1149 6.61866C16.439 6.37193 18.0457 5.21861 19.5949 5.35919C19.6781 5.5801 20.3035 7.03179 19.7527 8.74455C20.6822 9.80032 21.1556 11.1172 21.1556 12.5402C21.1556 15.4722 19.4629 17.9367 15.4177 18.6482C15.7642 18.9889 16.0393 19.3953 16.227 19.8435C16.4147 20.2918 16.5111 20.7729 16.5108 21.2589V24.4865C16.5337 24.7447 16.5108 25 16.9411 25C22.022 23.2872 25.6799 18.4875 25.6799 12.8328C25.6799 5.74076 19.9306 1.07431e-06 12.8414 1.07431e-06Z"></path>
  </symbol>
  <symbol xmlns="http://www.w3.org/2000/svg" viewBox="0 0 27 25" id="icon-eta">
    <path d="M12.579 5.18843C14.5684 5.18843 16.443 6.07035 17.8167 7.44901V7.45308C17.8167 6.79103 18.2622 6.29022 18.8778 6.29022H19.0342C20.0056 6.29022 20.2003 7.20634 20.2003 7.49542L20.2043 17.7845C20.1368 18.4587 20.9006 18.8072 21.3249 18.374C22.9739 16.6778 24.9502 9.64525 20.298 5.57361C15.9593 1.77314 10.136 2.40099 7.03992 4.53453C3.74922 6.80813 1.64581 11.8301 3.68896 16.5499C5.92022 21.6957 12.2988 23.2307 16.0952 21.6997C18.0171 20.9237 18.903 23.5181 16.9055 24.3675C13.8949 25.6517 5.50491 25.5206 1.58637 18.7348C-1.06101 14.1509 -0.920948 6.08745 6.10344 1.90995C11.4723 -1.28792 18.5561 -0.401928 22.8265 4.05652C27.289 8.7218 27.0309 17.4506 22.6742 20.8439C20.7011 22.387 17.7711 20.8862 17.7923 18.6379L17.7703 17.905C16.3965 19.2657 14.5684 20.0638 12.579 20.0638C8.64333 20.0638 5.17837 16.598 5.17837 12.6664C5.17837 8.69249 8.64333 5.19006 12.579 5.19006V5.18843ZM17.5293 12.3822C17.3803 9.50193 15.2426 7.76741 12.6596 7.76741H12.5619C9.58469 7.76741 7.93079 10.1127 7.93079 12.7715C7.93079 15.7527 9.92834 17.6354 12.5497 17.6354C15.4755 17.6354 17.3965 15.4946 17.5366 12.962L17.5293 12.3822Z"></path>
  </symbol>
</svg>