<svg width="0" height="0" class="hidden">
  <symbol fill="none" xmlns="http://www.w3.org/2000/svg" viewBox="0 0 97 100" id="bootstrap">
    <g clip-path="url(#clip0_1_759)">
      <path d="M96.242 83.3333C96.242 92.5 89.0238 100 80.2016 100H16.0403C7.21815 100 0 92.5 0 83.3333V16.6667C0 7.5 7.21815 0 16.0403 0H80.2016C89.0238 0 96.242 7.5 96.242 16.6667V83.3333Z" fill="#563D7C"></path>
      <path d="M26.1518 21.7323H53.4361C58.4683 21.7323 62.5099 22.9251 65.545 25.327C68.58 27.729 70.1054 31.3401 70.1054 36.1931C70.1054 39.1342 69.4135 41.6506 68.0296 43.7421C66.6458 45.8336 64.6643 47.4676 62.0853 48.6114V48.7748C65.545 49.5427 68.1712 51.2421 69.9482 53.8728C71.7252 56.5199 72.6216 59.8205 72.6216 63.8074C72.6216 66.095 72.2284 68.2355 71.4421 70.2127C70.6558 72.2061 69.4292 73.9218 67.7466 75.3597C66.0639 76.7976 63.9252 77.9414 61.299 78.7911C58.6728 79.6408 55.5591 80.0656 51.9421 80.0656H26.1518V21.7323ZM35.9804 46.1604H52.0208C54.3796 46.1604 56.3454 45.4741 57.9179 44.0689C59.4905 42.6636 60.2768 40.6702 60.2768 38.0558C60.2768 35.1146 59.5691 33.0395 58.1538 31.8466C56.7385 30.6538 54.6941 30.0493 52.0208 30.0493H35.9804V46.1604ZM35.9804 71.7323H53.3575C56.3454 71.7323 58.6728 70.9316 60.3083 69.314C61.9595 67.7127 62.7929 65.4251 62.7929 62.4839C62.7929 59.5917 61.9752 57.3859 60.3083 55.8172C58.6413 54.2486 56.3454 53.497 53.3575 53.497H35.9804V71.7323Z" fill="white"></path>
    </g>
    <defs>
      <clipPath id="clip0_1_759">
        <rect width="96.242" height="100" fill="white"></rect>
      </clipPath>
    </defs>
  </symbol>
  <symbol fill="none" xmlns="http://www.w3.org/2000/svg" viewBox="0 0 85 100" id="css-logo">
    <path d="M0.00976562 0L7.67267 90L42.0806 100L76.4765 90.0062L84.1514 0H0.00976562Z" fill="#2196F3"></path>
    <path d="M67.7674 29.4311L66.7998 40.7374L63.8789 74.6311L42.0802 80.8999L42.0622 80.9061L20.2755 74.6311L18.7549 56.9061H29.4289L30.2222 66.0999L42.0682 69.4249L42.0742 69.4186L53.9382 66.0936L55.5549 50.7749L18.2441 50.8811L17.1863 40.4061L56.4504 39.9249L57.2437 28.7124L16.1345 28.8311L15.4434 18.3999H42.0802H68.717L67.7674 29.4311Z" fill="#FAFAFA"></path>
  </symbol>
  <symbol fill="none" xmlns="http://www.w3.org/2000/svg" viewBox="0 0 70 100" id="figma">
    <g clip-path="url(#clip0_1_767)">
      <path d="M17.3753 100C26.9632 100 34.7447 92.5335 34.7447 83.3335V66.6668H17.3753C7.78742 66.6668 0.00592041 74.1335 0.00592041 83.3335C0.00592041 92.5335 7.78742 100 17.3753 100Z" fill="#0ACF83"></path>
      <path d="M0.00592041 49.9999C0.00592041 40.7999 7.78742 33.3332 17.3753 33.3332H34.7447V66.6665H17.3753C7.78742 66.6665 0.00592041 59.1999 0.00592041 49.9999Z" fill="#A259FF"></path>
      <path d="M0.00390625 16.6667C0.00390625 7.46667 7.7854 7.62939e-06 17.3733 7.62939e-06H34.7427V33.3333H17.3733C7.7854 33.3333 0.00390625 25.8667 0.00390625 16.6667Z" fill="#F24E1E"></path>
      <path d="M34.7458 7.62939e-06H52.1152C61.7031 7.62939e-06 69.4846 7.46667 69.4846 16.6667C69.4846 25.8667 61.7031 33.3333 52.1152 33.3333H34.7458V7.62939e-06Z" fill="#FF7262"></path>
      <path d="M69.4846 49.9999C69.4846 59.1999 61.7031 66.6665 52.1152 66.6665C42.5273 66.6665 34.7458 59.1999 34.7458 49.9999C34.7458 40.7999 42.5273 33.3332 52.1152 33.3332C61.7031 33.3332 69.4846 40.7999 69.4846 49.9999Z" fill="#1ABCFE"></path>
    </g>
    <defs>
      <clipPath id="clip0_1_767">
        <rect width="69.4915" height="100" fill="white"></rect>
      </clipPath>
    </defs>
  </symbol>
  <symbol version="1.0" xmlns="http://www.w3.org/2000/svg" preserveAspectRatio="xMidYMid meet" viewBox="0 0 272.000000 217.000000" id="git-logo">
    <g transform="translate(0.000000,217.000000) scale(0.100000,-0.100000)" fill="#f05033" stroke="none">
      <path d="M1285 2011 c-16 -10 -66 -55 -110 -100 l-80 -81 106 -106 c106 -105
106 -106 157 -108 86 -3 156 -74 151 -154 -3 -42 -1 -44 99 -145 96 -96 105
-103 137 -99 79 9 165 -69 165 -150 0 -78 -69 -148 -147 -148 -96 0 -157 64
-152 160 l3 49 -92 91 -92 91 0 -254 0 -254 26 -24 c56 -52 69 -117 35 -179
-72 -137 -281 -87 -281 68 0 53 20 94 60 122 l30 21 0 255 0 255 -30 26 c-44
37 -62 77 -59 134 l3 50 -99 99 c-55 55 -104 100 -110 100 -14 0 -580 -569
-594 -597 -15 -30 -14 -79 3 -111 8 -15 210 -221 448 -459 465 -463 461 -460
533 -433 18 6 210 191 463 443 463 463 467 467 443 538 -8 25 -136 159 -454
477 l-443 442 -44 0 c-27 0 -57 -8 -75 -19z"></path>
    </g>
  </symbol>
  <symbol fill="none" xmlns="http://www.w3.org/2000/svg" viewBox="0 0 85 100" id="html-logo">
    <path d="M0.015625 0L7.68491 90L42.1215 100L76.546 90.0062L84.2273 0H0.015625Z" fill="#FF5722"></path>
    <path d="M67.5955 29.4316H42.1215H27.2341L28.1965 40.7379H42.1215H66.6331L63.7399 74.6379L42.1215 80.9066L42.1035 80.9129L20.4972 74.6379L18.9874 56.9066H29.574L30.362 66.1066L42.1095 69.4254L42.1215 69.4191L53.8811 66.1004L55.1082 51.7816H42.1215H18.5543L15.7031 18.4004H42.1215H68.5339L67.5955 29.4316Z" fill="#FAFAFA"></path>
  </symbol>
  <symbol fill="none" xmlns="http://www.w3.org/2000/svg" viewBox="0 0 97 100" id="js-logo">
    <path d="M0 0H96.242V100H0V0Z" fill="#F7DF1E"></path>
    <path d="M25.3058 83.5671L32.6709 78.9358C34.0917 81.5534 35.3843 83.7682 38.4846 83.7682C41.4565 83.7682 43.3302 82.5602 43.3302 77.8618V45.9095H52.3745V77.9947C52.3745 87.728 46.8835 92.1583 38.8724 92.1583C31.6373 92.1583 27.4374 88.2649 25.3056 83.5663" fill="black"></path>
    <path d="M57.2868 82.5603L64.651 78.13C66.5896 81.4195 69.1091 83.8359 73.5665 83.8359C77.314 83.8359 79.7037 81.889 79.7037 79.204C79.7037 75.9819 77.2489 74.8406 73.1142 72.9617L70.8537 71.9541C64.3284 69.0682 59.9998 65.4435 59.9998 57.7909C59.9998 50.7427 65.168 45.3724 73.2437 45.3724C78.9935 45.3724 83.1281 47.4535 86.0995 52.8908L79.0577 57.5894C77.5071 54.7032 75.8279 53.5622 73.2439 53.5622C70.5951 53.5622 68.9153 55.3075 68.9153 57.5894C68.9153 60.4087 70.5951 61.5502 74.4709 63.2955L76.7318 64.3024C84.4197 67.726 88.7483 71.2162 88.7483 79.0697C88.7483 87.5281 82.3527 92.1593 73.7605 92.1593C65.3621 92.1593 59.9353 87.9978 57.287 82.5603" fill="black"></path>
  </symbol>
</svg>