<svg width="14" height="15" viewBox="0 0 14 15" fill="none" xmlns="http://www.w3.org/2000/svg">
<path d="M11.6049 5.83929C11.6049 5.99107 11.5513 6.13393 11.4442 6.24107L6.59598 11.0893C6.48884 11.1964 6.33705 11.2589 6.18527 11.2589C6.04241 11.2589 5.89063 11.1964 5.78348 11.0893L2.55134 7.85714C2.4442 7.75 2.39062 7.60714 2.39062 7.45536C2.39062 7.30357 2.4442 7.15179 2.55134 7.04464L3.36384 6.24107C3.47098 6.13393 3.61384 6.07143 3.76563 6.07143C3.91741 6.07143 4.06027 6.13393 4.16741 6.24107L6.18527 8.25893L9.82812 4.625C9.93527 4.51786 10.0781 4.45536 10.2299 4.45536C10.3817 4.45536 10.5246 4.51786 10.6317 4.625L11.4442 5.42857C11.5513 5.53571 11.6049 5.6875 11.6049 5.83929ZM13.8549 7.28571C13.8549 3.5 10.7835 0.428571 6.99777 0.428571C3.21205 0.428571 0.140625 3.5 0.140625 7.28571C0.140625 11.0714 3.21205 14.1429 6.99777 14.1429C10.7835 14.1429 13.8549 11.0714 13.8549 7.28571Z" fill="#3AB54A"/>
</svg>
