<svg width="0" height="0" class="hidden">
  <symbol fill="none" xmlns="http://www.w3.org/2000/svg" viewBox="0 0 115 24" id="manice_white">
    <path d="M2.416 0.567999C2.71467 0.567999 3.024 0.653332 3.344 0.823999C3.68533 0.973332 3.94133 1.176 4.112 1.432L11.888 13.4L10.288 13.336L18.256 1.432C18.6613 0.855999 19.184 0.567999 19.824 0.567999C20.336 0.567999 20.7947 0.749332 21.2 1.112C21.6053 1.47467 21.808 1.944 21.808 2.52V21.048C21.808 21.6027 21.6267 22.072 21.264 22.456C20.9013 22.8187 20.4213 23 19.824 23C19.2267 23 18.736 22.8187 18.352 22.456C17.9893 22.072 17.808 21.6027 17.808 21.048V5.976L19.056 6.264L12.528 16.216C12.336 16.4507 12.0907 16.6533 11.792 16.824C11.5147 16.9947 11.2267 17.0693 10.928 17.048C10.6507 17.0693 10.3627 16.9947 10.064 16.824C9.78667 16.6533 9.552 16.4507 9.36 16.216L3.248 6.552L4.08 4.856V21.048C4.08 21.6027 3.90933 22.072 3.568 22.456C3.22667 22.8187 2.77867 23 2.224 23C1.69067 23 1.25333 22.8187 0.912 22.456C0.570667 22.072 0.4 21.6027 0.4 21.048V2.52C0.4 1.98667 0.592 1.528 0.976 1.144C1.38133 0.759999 1.86133 0.567999 2.416 0.567999ZM34.8428 5.624L27.9308 21.88C27.7814 22.2853 27.5468 22.6053 27.2268 22.84C26.9281 23.0533 26.5974 23.16 26.2348 23.16C25.6588 23.16 25.2321 23 24.9548 22.68C24.6774 22.36 24.5388 21.9653 24.5388 21.496C24.5388 21.304 24.5708 21.1013 24.6348 20.888L32.6028 1.752C32.7734 1.32533 33.0294 0.994666 33.3708 0.759998C33.7334 0.525332 34.1174 0.429332 34.5228 0.471998C34.9068 0.471998 35.2588 0.589332 35.5788 0.823999C35.9201 1.03733 36.1654 1.34667 36.3148 1.752L44.1868 20.504C44.2934 20.7813 44.3468 21.0373 44.3468 21.272C44.3468 21.848 44.1548 22.3067 43.7708 22.648C43.4081 22.9893 43.0028 23.16 42.5548 23.16C42.1708 23.16 41.8188 23.0427 41.4988 22.808C41.2001 22.5733 40.9654 22.2533 40.7948 21.848L33.9148 5.816L34.8428 5.624ZM28.9227 17.976L30.6828 14.296H39.3228L39.9308 17.976H28.9227ZM64.0483 0.599998C64.5603 0.599998 64.9763 0.770665 65.2963 1.112C65.6163 1.45333 65.7763 1.88 65.7763 2.392V21.048C65.7763 21.6027 65.5843 22.072 65.2003 22.456C64.8376 22.8187 64.3789 23 63.8243 23C63.5469 23 63.2589 22.9573 62.9603 22.872C62.6829 22.7653 62.4696 22.6267 62.3203 22.456L49.7443 6.488L50.5763 5.976V21.208C50.5763 21.72 50.4056 22.1467 50.0643 22.488C49.7443 22.8293 49.3176 23 48.7843 23C48.2723 23 47.8563 22.8293 47.5363 22.488C47.2163 22.1467 47.0563 21.72 47.0563 21.208V2.552C47.0563 1.99733 47.2376 1.53867 47.6003 1.176C47.9843 0.791999 48.4536 0.599998 49.0083 0.599998C49.3069 0.599998 49.6163 0.663999 49.9363 0.792C50.2563 0.898666 50.4909 1.06933 50.6403 1.304L62.8323 16.856L62.2882 17.24V2.392C62.2882 1.88 62.4483 1.45333 62.7683 1.112C63.0883 0.770665 63.5149 0.599998 64.0483 0.599998ZM74.5875 21.048C74.5875 21.6027 74.3848 22.072 73.9795 22.456C73.5742 22.8187 73.1048 23 72.5715 23C71.9742 23 71.4942 22.8187 71.1315 22.456C70.7688 22.072 70.5875 21.6027 70.5875 21.048V2.552C70.5875 1.99733 70.7795 1.53867 71.1635 1.176C71.5475 0.791999 72.0382 0.599998 72.6355 0.599998C73.1475 0.599998 73.5955 0.791999 73.9795 1.176C74.3848 1.53867 74.5875 1.99733 74.5875 2.552V21.048ZM95.08 1.688C95.6347 1.96533 95.9547 2.40267 96.04 3C96.1467 3.59733 95.9973 4.14133 95.592 4.632C95.3147 5.016 94.952 5.22933 94.504 5.272C94.0773 5.31467 93.64 5.22933 93.192 5.016C92.68 4.78133 92.136 4.6 91.56 4.472C91.0053 4.344 90.4187 4.28 89.8 4.28C88.648 4.28 87.6133 4.46133 86.696 4.824C85.8 5.18667 85.032 5.70933 84.392 6.392C83.752 7.05333 83.2613 7.84267 82.92 8.76C82.6 9.67733 82.44 10.6907 82.44 11.8C82.44 13.1013 82.6213 14.232 82.984 15.192C83.368 16.152 83.8907 16.952 84.552 17.592C85.2133 18.232 85.992 18.712 86.888 19.032C87.784 19.3307 88.7547 19.48 89.8 19.48C90.376 19.48 90.952 19.4267 91.528 19.32C92.104 19.2133 92.6587 19.0213 93.192 18.744C93.64 18.5307 94.0773 18.456 94.504 18.52C94.952 18.584 95.3253 18.808 95.624 19.192C96.0507 19.7253 96.2 20.28 96.072 20.856C95.9653 21.4107 95.6453 21.816 95.112 22.072C94.5573 22.3493 93.9813 22.584 93.384 22.776C92.808 22.9467 92.2213 23.0747 91.624 23.16C91.0267 23.2667 90.4187 23.32 89.8 23.32C88.264 23.32 86.8027 23.0747 85.416 22.584C84.0507 22.0933 82.824 21.368 81.736 20.408C80.6693 19.448 79.8267 18.2533 79.208 16.824C78.5893 15.3733 78.28 13.6987 78.28 11.8C78.28 10.1573 78.5573 8.64267 79.112 7.256C79.688 5.86933 80.488 4.67467 81.512 3.672C82.5573 2.648 83.784 1.85867 85.192 1.304C86.6 0.727999 88.136 0.439999 89.8 0.439999C90.7387 0.439999 91.656 0.546665 92.552 0.759998C93.448 0.973331 94.2907 1.28267 95.08 1.688ZM101.415 0.599998H112.135C112.689 0.599998 113.148 0.781332 113.51 1.144C113.895 1.48533 114.087 1.93333 114.087 2.488C114.087 3.02133 113.895 3.45867 113.51 3.8C113.148 4.12 112.689 4.28 112.135 4.28H103.175L103.463 3.736V9.976L103.207 9.72H110.695C111.249 9.72 111.708 9.90133 112.071 10.264C112.455 10.6053 112.647 11.0533 112.647 11.608C112.647 12.1413 112.455 12.5787 112.071 12.92C111.708 13.24 111.249 13.4 110.695 13.4H103.303L103.463 13.144V19.608L103.207 19.32H112.135C112.689 19.32 113.148 19.512 113.51 19.896C113.895 20.2587 114.087 20.6853 114.087 21.176C114.087 21.7093 113.895 22.1467 113.51 22.488C113.148 22.8293 112.689 23 112.135 23H101.415C100.86 23 100.391 22.8187 100.007 22.456C99.6438 22.072 99.4625 21.6027 99.4625 21.048V2.552C99.4625 1.99733 99.6438 1.53867 100.007 1.176C100.391 0.791999 100.86 0.599998 101.415 0.599998Z" fill="white"></path>
  </symbol>
  <symbol fill="none" xmlns="http://www.w3.org/2000/svg" viewBox="0 0 41 36" id="vector1_white">
    <path fill-rule="evenodd" clip-rule="evenodd" d="M20.001 0.000976562C22.2842 0.000976562 24.4 1.19892 25.5747 3.15675L39.0747 25.6568C40.9216 28.735 39.9235 32.7277 36.8452 34.5747C33.7669 36.4216 29.7742 35.4235 27.9273 32.3452L20.001 19.1347L12.0747 32.3452C10.2277 35.4235 6.23503 36.4216 3.15676 34.5747C0.0784883 32.7277 -0.919685 28.735 0.927278 25.6568L14.4273 3.15675C15.602 1.19892 17.7178 0.000976562 20.001 0.000976562Z" fill="#3AB54A"></path>
  </symbol>
  <symbol fill="none" xmlns="http://www.w3.org/2000/svg" viewBox="0 0 28 36" id="vector2_white">
    <path fill-rule="evenodd" clip-rule="evenodd" d="M3.65676 0.927278C6.73503 -0.919685 10.7277 0.0784883 12.5747 3.15676L26.0747 25.6568C27.9216 28.735 26.9235 32.7277 23.8452 34.5747C20.7669 36.4217 16.7742 35.4235 14.9273 32.3452L1.42728 9.8452C-0.419685 6.76693 0.578488 2.77424 3.65676 0.927278Z" fill="white"></path>
  </symbol>
</svg>