<svg width="0" height="0" class="hidden">
  <symbol fill="none" xmlns="http://www.w3.org/2000/svg" viewBox="0 0 41 36" id="vector1">
    <path fill-rule="evenodd" clip-rule="evenodd" d="M20.001 0.000976562C22.2842 0.000976562 24.4 1.19892 25.5747 3.15675L39.0747 25.6568C40.9216 28.735 39.9235 32.7277 36.8452 34.5747C33.7669 36.4216 29.7742 35.4235 27.9273 32.3452L20.001 19.1347L12.0747 32.3452C10.2277 35.4235 6.23503 36.4216 3.15676 34.5747C0.0784883 32.7277 -0.919685 28.735 0.927278 25.6568L14.4273 3.15675C15.602 1.19892 17.7178 0.000976562 20.001 0.000976562Z" fill="#3AB54A"></path>
  </symbol>
  <symbol fill="none" xmlns="http://www.w3.org/2000/svg" viewBox="0 0 28 36" id="vector2">
    <path fill-rule="evenodd" clip-rule="evenodd" d="M3.65676 0.927278C6.73503 -0.919685 10.7277 0.0784883 12.5747 3.15676L26.0747 25.6568C27.9216 28.735 26.9235 32.7277 23.8452 34.5747C20.7669 36.4217 16.7742 35.4235 14.9273 32.3452L1.42728 9.8452C-0.419685 6.76693 0.578488 2.77424 3.65676 0.927278Z" fill="black"></path>
  </symbol>
  <symbol fill="none" xmlns="http://www.w3.org/2000/svg" viewBox="0 0 115 24" id="manice">
    <path d="M19.824 0.567999C20.3573 0.567999 20.816 0.759999 21.2 1.144C21.6053 1.50667 21.808 1.96533 21.808 2.52V21.048C21.808 21.6027 21.6267 22.072 21.264 22.456C20.9013 22.8187 20.4213 23 19.824 23C19.2267 23 18.736 22.8187 18.352 22.456C17.9893 22.0933 17.808 21.624 17.808 21.048V8.152L12.528 16.216C12.3147 16.472 12.0693 16.6853 11.792 16.856C11.5147 17.0053 11.2267 17.0693 10.928 17.048C10.6507 17.0693 10.3733 17.0053 10.096 16.856C9.81867 16.6853 9.57333 16.472 9.36 16.216L4.08 7.864V21.048C4.08 21.624 3.90933 22.0933 3.568 22.456C3.22667 22.8187 2.77867 23 2.224 23C1.69067 23 1.25333 22.8187 0.912 22.456C0.570667 22.072 0.4 21.6027 0.4 21.048V2.52C0.4 1.98667 0.592 1.528 0.976 1.144C1.38133 0.759999 1.86133 0.567999 2.416 0.567999C2.736 0.567999 3.056 0.653332 3.376 0.823999C3.696 0.973332 3.94133 1.176 4.112 1.432L11.088 12.152L18.256 1.432C18.4267 1.176 18.6507 0.973332 18.928 0.823999C19.2267 0.653332 19.5253 0.567999 19.824 0.567999ZM44.1868 20.504C44.2934 20.7813 44.3468 21.0373 44.3468 21.272C44.3468 21.8267 44.1654 22.2853 43.8028 22.648C43.4401 22.9893 43.0241 23.16 42.5548 23.16C42.1708 23.16 41.8188 23.0427 41.4988 22.808C41.2001 22.5733 40.9654 22.2533 40.7948 21.848L39.1308 17.976H29.5948L27.9308 21.88C27.7814 22.2853 27.5468 22.6053 27.2268 22.84C26.9281 23.0533 26.5974 23.16 26.2348 23.16C25.6801 23.16 25.2534 23.0107 24.9548 22.712C24.6774 22.4133 24.5388 22.008 24.5388 21.496C24.5388 21.304 24.5708 21.1013 24.6348 20.888L32.6028 1.752C32.7734 1.32533 33.0294 0.994666 33.3708 0.759998C33.7121 0.525332 34.0961 0.429332 34.5228 0.471998C34.9068 0.471998 35.2588 0.589332 35.5788 0.823999C35.9201 1.03733 36.1654 1.34667 36.3148 1.752L44.1868 20.504ZM37.5628 14.296L34.3308 6.808L31.1628 14.296H37.5628ZM64.0483 0.599998C64.5603 0.599998 64.9763 0.770665 65.2963 1.112C65.6163 1.45333 65.7763 1.88 65.7763 2.392V21.048C65.7763 21.6027 65.5843 22.072 65.2003 22.456C64.8376 22.8187 64.3789 23 63.8243 23C63.5256 23 63.2269 22.9573 62.9283 22.872C62.6509 22.7653 62.4483 22.6267 62.3203 22.456L50.5763 7.544V21.208C50.5763 21.72 50.4056 22.1467 50.0643 22.488C49.7443 22.8293 49.3176 23 48.7843 23C48.2723 23 47.8563 22.8293 47.5363 22.488C47.2163 22.1467 47.0563 21.72 47.0563 21.208V2.552C47.0563 1.99733 47.2376 1.53867 47.6003 1.176C47.9843 0.791999 48.4536 0.599998 49.0083 0.599998C49.3283 0.599998 49.6376 0.663999 49.9363 0.792C50.2563 0.919999 50.4909 1.09067 50.6403 1.304L62.2882 16.152V2.392C62.2882 1.88 62.4483 1.45333 62.7683 1.112C63.1096 0.770665 63.5363 0.599998 64.0483 0.599998ZM74.5875 21.048C74.5875 21.6027 74.3848 22.072 73.9795 22.456C73.5742 22.8187 73.1048 23 72.5715 23C71.9955 23 71.5155 22.8187 71.1315 22.456C70.7688 22.072 70.5875 21.6027 70.5875 21.048V2.552C70.5875 1.99733 70.7795 1.53867 71.1635 1.176C71.5475 0.791999 72.0382 0.599998 72.6355 0.599998C73.1688 0.599998 73.6275 0.791999 74.0115 1.176C74.3955 1.53867 74.5875 1.99733 74.5875 2.552V21.048ZM95.08 1.688C95.7413 2.02933 96.072 2.57333 96.072 3.32C96.072 3.768 95.912 4.20533 95.592 4.632C95.2507 5.08 94.8133 5.304 94.28 5.304C93.9173 5.304 93.5547 5.208 93.192 5.016C92.1467 4.52533 91.016 4.28 89.8 4.28C88.3067 4.28 87.0053 4.6 85.896 5.24C84.7867 5.85867 83.9333 6.744 83.336 7.896C82.7387 9.02667 82.44 10.328 82.44 11.8C82.44 14.3173 83.112 16.2267 84.456 17.528C85.8213 18.8293 87.6027 19.48 89.8 19.48C91.1013 19.48 92.232 19.2347 93.192 18.744C93.576 18.5733 93.9173 18.488 94.216 18.488C94.7707 18.488 95.24 18.7227 95.624 19.192C95.944 19.5973 96.104 20.0347 96.104 20.504C96.104 20.8453 96.0187 21.1547 95.848 21.432C95.6773 21.7093 95.432 21.9227 95.112 22.072C93.448 22.904 91.6773 23.32 89.8 23.32C87.7093 23.32 85.7893 22.8827 84.04 22.008C82.2907 21.112 80.8933 19.8 79.848 18.072C78.8027 16.344 78.28 14.2533 78.28 11.8C78.28 9.624 78.7707 7.672 79.752 5.944C80.7547 4.216 82.1307 2.872 83.88 1.912C85.6293 0.930665 87.6027 0.439999 89.8 0.439999C91.6987 0.439999 93.4587 0.855999 95.08 1.688ZM112.135 19.32C112.689 19.32 113.148 19.512 113.51 19.896C113.895 20.2587 114.087 20.6853 114.087 21.176C114.087 21.7093 113.895 22.1467 113.51 22.488C113.148 22.8293 112.689 23 112.135 23H101.415C100.86 23 100.391 22.8187 100.007 22.456C99.6438 22.072 99.4625 21.6027 99.4625 21.048V2.552C99.4625 1.99733 99.6438 1.53867 100.007 1.176C100.391 0.791999 100.86 0.599998 101.415 0.599998H112.135C112.689 0.599998 113.148 0.781332 113.51 1.144C113.895 1.48533 114.087 1.93333 114.087 2.488C114.087 3.02133 113.905 3.45867 113.543 3.8C113.18 4.12 112.711 4.28 112.135 4.28H103.463V9.72H110.695C111.249 9.72 111.708 9.90133 112.071 10.264C112.455 10.6053 112.647 11.0533 112.647 11.608C112.647 12.1413 112.465 12.5787 112.103 12.92C111.74 13.24 111.271 13.4 110.695 13.4H103.463V19.32H112.135Z" fill="black"></path>
  </symbol>
</svg>