<svg width="0" height="0" class="hidden">
  <symbol fill="none" xmlns="http://www.w3.org/2000/svg" viewBox="0 0 65 57" id="it_consulting">
    <path d="M60.3613 33.7857C60.3613 34.3549 59.8591 34.8571 59.2899 34.8571H5.71847C5.14927 34.8571 4.64704 34.3549 4.64704 33.7857V5.92857C4.64704 5.35937 5.14927 4.85714 5.71847 4.85714H59.2899C59.8591 4.85714 60.3613 5.35937 60.3613 5.92857V33.7857ZM64.647 5.92857C64.647 2.98214 62.2363 0.571424 59.2899 0.571424H5.71847C2.77204 0.571424 0.361328 2.98214 0.361328 5.92857V42.3571C0.361328 45.3036 2.77204 47.7143 5.71847 47.7143H23.9328C23.9328 50.6272 21.7899 52.904 21.7899 54.1429C21.7899 55.3147 22.7609 56.2857 23.9328 56.2857H41.0756C42.2475 56.2857 43.2185 55.3147 43.2185 54.1429C43.2185 52.971 41.0756 50.5603 41.0756 47.7143H59.2899C62.2363 47.7143 64.647 45.3036 64.647 42.3571V5.92857Z" fill="#3AB54A"></path>
  </symbol>
  <symbol fill="none" xmlns="http://www.w3.org/2000/svg" viewBox="0 0 65 61" id="clients">
    <path d="M20.2162 30.5714C18.4752 28.0603 17.5042 25.0469 17.5042 22C17.5042 21.2634 17.5712 20.5268 17.6716 19.7902C16.2319 20.2924 14.7587 20.5603 13.2185 20.5603C8.69838 20.5603 5.21624 17.7143 4.51311 17.7143C0.260882 17.7143 0.361328 26.8214 0.361328 29.5335C0.361328 33.25 3.50865 34.8571 6.85686 34.8571H11.3435C13.5868 32.1786 16.7341 30.6719 20.2162 30.5714ZM56.0756 51.8996C56.0756 44.3326 54.3011 32.7143 44.4908 32.7143C43.3524 32.7143 39.2006 37.3683 32.5042 37.3683C25.8078 37.3683 21.656 32.7143 20.5176 32.7143C10.7073 32.7143 8.93276 44.3326 8.93276 51.8996C8.93276 57.3237 12.5153 60.5714 17.8725 60.5714H47.1359C52.493 60.5714 56.0756 57.3237 56.0756 51.8996ZM21.7899 9.14286C21.7899 4.42187 17.9395 0.571424 13.2185 0.571424C8.49749 0.571424 4.64704 4.42187 4.64704 9.14286C4.64704 13.8638 8.49749 17.7143 13.2185 17.7143C17.9395 17.7143 21.7899 13.8638 21.7899 9.14286ZM45.3613 22C45.3613 14.9018 39.6024 9.14286 32.5042 9.14286C25.406 9.14286 19.647 14.9018 19.647 22C19.647 29.0982 25.406 34.8571 32.5042 34.8571C39.6024 34.8571 45.3613 29.0982 45.3613 22ZM64.647 29.5335C64.647 26.8214 64.7475 17.7143 60.4953 17.7143C59.7921 17.7143 56.31 20.5603 51.7899 20.5603C50.2497 20.5603 48.7765 20.2924 47.3368 19.7902C47.4372 20.5268 47.5042 21.2634 47.5042 22C47.5042 25.0469 46.5332 28.0603 44.7921 30.5714C48.2743 30.6719 51.4216 32.1786 53.6649 34.8571H58.1515C61.4997 34.8571 64.647 33.25 64.647 29.5335ZM60.3613 9.14286C60.3613 4.42187 56.5109 0.571424 51.7899 0.571424C47.0689 0.571424 43.2185 4.42187 43.2185 9.14286C43.2185 13.8638 47.0689 17.7143 51.7899 17.7143C56.5109 17.7143 60.3613 13.8638 60.3613 9.14286Z" fill="#3AB54A"></path>
  </symbol>
  <symbol fill="none" xmlns="http://www.w3.org/2000/svg" viewBox="0 0 60 48" id="online_consulting">
    <path d="M47.1429 17.2857C47.1429 7.81027 36.596 0.142856 23.5714 0.142856C10.5469 0.142856 0 7.81027 0 17.2857C0 22.7098 3.48214 27.5647 8.90625 30.7121C7.76786 33.4911 6.29464 34.7969 4.98884 36.2701C4.62054 36.7054 4.18527 37.1071 4.3192 37.7433C4.41964 38.3125 4.88839 38.7143 5.39063 38.7143C5.42411 38.7143 5.45759 38.7143 5.49107 38.7143C6.49554 38.5804 7.46652 38.4129 8.37054 38.1786C11.7522 37.308 14.8996 35.8683 17.6786 33.8929C19.5536 34.2277 21.529 34.4286 23.5714 34.4286C36.596 34.4286 47.1429 26.7612 47.1429 17.2857ZM60 25.8571C60 20.2656 56.317 15.3103 50.6585 12.1964C51.1607 13.8371 51.4286 15.5446 51.4286 17.2857C51.4286 23.279 48.3482 28.8036 42.7567 32.8884C37.567 36.6384 30.7701 38.7143 23.5714 38.7143C22.6004 38.7143 21.596 38.6473 20.625 38.5804C24.8103 41.3259 30.3683 43 36.4286 43C38.471 43 40.4464 42.7991 42.3214 42.4643C45.1004 44.4397 48.2478 45.8795 51.6295 46.75C52.5335 46.9844 53.5045 47.1518 54.5089 47.2857C55.0446 47.3527 55.5469 46.9174 55.6808 46.3147C55.8147 45.6786 55.3795 45.2768 55.0112 44.8415C53.7054 43.3683 52.2321 42.0625 51.0938 39.2835C56.5179 36.1362 60 31.3147 60 25.8571Z" fill="#3AB54A"></path>
  </symbol>
  <symbol fill="none" xmlns="http://www.w3.org/2000/svg" viewBox="0 0 58 57" id="opportunities">
    <path d="M25.7143 30.3705V4.85714C11.5179 4.85714 0 16.375 0 30.5714C0 44.7679 11.5179 56.2857 25.7143 56.2857C32.846 56.2857 39.3415 53.3728 43.9955 48.6518L25.7143 30.3705ZM31.9754 30.5714L50.2232 48.8527C54.9442 44.1987 57.8571 37.7031 57.8571 30.5714H31.9754ZM55.7143 26.2857C55.7143 12.0893 44.1964 0.571424 30 0.571424V26.2857H55.7143Z" fill="#3AB54A"></path>
  </symbol>
  <symbol fill="none" xmlns="http://www.w3.org/2000/svg" viewBox="0 0 60 52" id="solutions">
    <path d="M21.4286 9.14286V4.85714H38.5714V9.14286H21.4286ZM60 30.5714H37.5V35.9286C37.5 37.1004 36.529 38.0714 35.3571 38.0714H24.6429C23.471 38.0714 22.5 37.1004 22.5 35.9286V30.5714H0V46.6429C0 49.5893 2.41071 52 5.35714 52H54.6429C57.5893 52 60 49.5893 60 46.6429V30.5714ZM34.2857 30.5714H25.7143V34.8571H34.2857V30.5714ZM60 14.5C60 11.5536 57.5893 9.14286 54.6429 9.14286H42.8571V3.78571C42.8571 2.01116 41.4174 0.571424 39.6429 0.571424H20.3571C18.5826 0.571424 17.1429 2.01116 17.1429 3.78571V9.14286H5.35714C2.41071 9.14286 0 11.5536 0 14.5V27.3571H60V14.5Z" fill="#3AB54A"></path>
  </symbol>
  <symbol fill="none" xmlns="http://www.w3.org/2000/svg" viewBox="0 0 69 53" id="analysis">
    <path d="M68.7941 48H4.50837V0.85714H0.222656V52.2857H68.7941V48ZM64.5084 6.21428C64.5084 5.61161 64.0396 5.14286 63.4369 5.14286H48.8722C47.9347 5.14286 47.4325 6.28125 48.1356 6.98437L52.1869 11.0357L36.6512 26.5714L28.8499 18.7701C28.4146 18.3348 27.745 18.3348 27.3097 18.7701L7.72266 38.3571L14.1512 44.7857L28.0798 30.8571L35.8811 38.6585C36.3164 39.0938 36.9861 39.0938 37.4213 38.6585L58.6155 17.4643L62.6669 21.5156C63.37 22.2187 64.5084 21.7165 64.5084 20.779V6.21428Z" fill="#3AB54A"></path>
  </symbol>
</svg>