<svg width="0" height="0" class="hidden">
  <symbol fill="none" xmlns="http://www.w3.org/2000/svg" viewBox="0 0 15 17" id="calendar">
    <path d="M1.14286 15.1429V6H13.7143V15.1429H1.14286ZM4.57143 4.28571C4.57143 4.44643 4.44643 4.57143 4.28571 4.57143H3.71429C3.55357 4.57143 3.42857 4.44643 3.42857 4.28571V1.71428C3.42857 1.55357 3.55357 1.42857 3.71429 1.42857H4.28571C4.44643 1.42857 4.57143 1.55357 4.57143 1.71428V4.28571ZM11.4286 4.28571C11.4286 4.44643 11.3036 4.57143 11.1429 4.57143H10.5714C10.4107 4.57143 10.2857 4.44643 10.2857 4.28571V1.71428C10.2857 1.55357 10.4107 1.42857 10.5714 1.42857H11.1429C11.3036 1.42857 11.4286 1.55357 11.4286 1.71428V4.28571ZM14.8571 3.71428C14.8571 3.08928 14.3393 2.57143 13.7143 2.57143H12.5714V1.71428C12.5714 0.928571 11.9286 0.285713 11.1429 0.285713H10.5714C9.78572 0.285713 9.14286 0.928571 9.14286 1.71428V2.57143H5.71429V1.71428C5.71429 0.928571 5.07143 0.285713 4.28571 0.285713H3.71429C2.92857 0.285713 2.28571 0.928571 2.28571 1.71428V2.57143H1.14286C0.517857 2.57143 0 3.08928 0 3.71428V15.1429C0 15.7679 0.517857 16.2857 1.14286 16.2857H13.7143C14.3393 16.2857 14.8571 15.7679 14.8571 15.1429V3.71428Z" fill="#3AB54A"></path>
  </symbol>
  <symbol fill="none" xmlns="http://www.w3.org/2000/svg" viewBox="0 0 16 15" id="comment">
    <path d="M8 1.71428C11.7143 1.71428 14.8571 3.80357 14.8571 6.28571C14.8571 8.76786 11.7143 10.8571 8 10.8571C7.61607 10.8571 7.22321 10.8304 6.83929 10.7857L6.33036 10.7321L5.94643 11.0714C5.21429 11.7143 4.39286 12.2232 3.49107 12.5982C3.72321 12.1875 3.94643 11.6964 4.11607 11.0625L4.35714 10.2054L3.58036 9.75893C2.03571 8.88393 1.14286 7.61607 1.14286 6.28571C1.14286 3.80357 4.28571 1.71428 8 1.71428ZM16 6.28571C16 3.125 12.4196 0.571428 8 0.571428C3.58036 0.571428 0 3.125 0 6.28571C0 8.09821 1.17857 9.71429 3.01786 10.7589C2.59821 12.25 1.95536 12.7857 1.39286 13.4196C1.25893 13.5804 1.10714 13.7143 1.15179 13.9375C1.15179 13.9375 1.15179 13.9375 1.15179 13.9464C1.19643 14.1429 1.35714 14.2857 1.53571 14.2857C1.54464 14.2857 1.5625 14.2857 1.58036 14.2857C1.92857 14.2411 2.27679 14.1786 2.59821 14.0893C4.14286 13.6964 5.53571 12.9643 6.70536 11.9286C7.125 11.9732 7.5625 12 8 12C12.4196 12 16 9.44643 16 6.28571Z" fill="#3AB54A"></path>
  </symbol>
  <symbol fill="none" xmlns="http://www.w3.org/2000/svg" viewBox="0 0 14 17" id="person">
    <path d="M10.7232 7.28571C11.1696 6.58036 11.4286 5.75 11.4286 4.85714C11.4286 2.33928 9.375 0.285713 6.85714 0.285713C4.33929 0.285713 2.28571 2.33928 2.28571 4.85714C2.28571 5.75 2.54464 6.58036 2.99107 7.28571C1.73214 7.65179 0 8.89286 0 12.9554C0 14.7946 1.36607 16.2857 3.04464 16.2857H10.6696C12.3482 16.2857 13.7143 14.7946 13.7143 12.9554C13.7143 8.89286 11.9821 7.65179 10.7232 7.28571ZM6.85714 1.42857C8.75 1.42857 10.2857 2.96428 10.2857 4.85714C10.2857 6.75 8.75 8.28571 6.85714 8.28571C4.96429 8.28571 3.42857 6.75 3.42857 4.85714C3.42857 2.96428 4.96429 1.42857 6.85714 1.42857ZM10.6696 15.1429H3.04464C2 15.1429 1.14286 14.1696 1.14286 12.9554C1.14286 10.1429 2.08929 8.38393 3.85714 8.29464C4.66071 9 5.70536 9.42857 6.85714 9.42857C8.00893 9.42857 9.05357 9 9.85714 8.29464C11.625 8.38393 12.5714 10.1429 12.5714 12.9554C12.5714 14.1696 11.7143 15.1429 10.6696 15.1429Z" fill="#3AB54A"></path>
  </symbol>
</svg>