<svg width="56" height="56" viewBox="0 0 56 56" fill="none" xmlns="http://www.w3.org/2000/svg">
<g filter="url(#filter0_d_19_1004)">
<path d="M51.5589 38.0893C51.5589 37.8549 51.5589 37.6205 51.4584 37.3862C51.2241 36.683 49.5834 35.9464 48.9138 35.6116C47.0053 34.5402 45.0633 33.5022 43.1883 32.3973C42.3178 31.8616 41.2464 30.8571 40.2084 30.8571C38.166 30.8571 35.1861 36.9174 33.3781 36.9174C32.4741 36.9174 31.3022 36.0804 30.4986 35.6116C24.4049 32.2299 20.1861 28.0112 16.8044 21.9174C16.3357 21.1138 15.4986 19.942 15.4986 19.0379C15.4986 17.2299 21.5589 14.25 21.5589 12.2076C21.5589 11.1696 20.5544 10.0982 20.0187 9.22768C18.9138 7.35268 17.8758 5.41071 16.8044 3.50223C16.4696 2.83259 15.733 1.19196 15.0299 0.957587C14.7955 0.85714 14.5611 0.85714 14.3267 0.85714C13.1214 0.85714 10.7776 1.39286 9.67271 1.89509C8.03209 2.59821 6.96066 4.47321 6.1236 5.97991C5.05218 7.95536 4.41602 9.96428 4.41602 12.2076C4.41602 15.3214 5.68834 18.1339 6.72628 20.9799C7.46289 23.0223 8.36691 24.9978 9.5053 26.8393C13.0209 32.5312 19.8848 39.3951 25.5767 42.9107C27.4182 44.0491 29.3937 44.9531 31.4361 45.6897C34.2821 46.7277 37.0946 48 40.2084 48C42.4517 48 44.4607 47.3638 46.4361 46.2924C47.9428 45.4554 49.8178 44.3839 50.5209 42.7433C51.0232 41.6384 51.5589 39.2946 51.5589 38.0893Z" fill="#3AB54A"/>
</g>
<defs>
<filter id="filter0_d_19_1004" x="0.416016" y="0.857117" width="55.1426" height="55.1429" filterUnits="userSpaceOnUse" color-interpolation-filters="sRGB">
<feFlood flood-opacity="0" result="BackgroundImageFix"/>
<feColorMatrix in="SourceAlpha" type="matrix" values="0 0 0 0 0 0 0 0 0 0 0 0 0 0 0 0 0 0 127 0" result="hardAlpha"/>
<feOffset dy="4"/>
<feGaussianBlur stdDeviation="2"/>
<feComposite in2="hardAlpha" operator="out"/>
<feColorMatrix type="matrix" values="0 0 0 0 0 0 0 0 0 0 0 0 0 0 0 0 0 0 0.25 0"/>
<feBlend mode="normal" in2="BackgroundImageFix" result="effect1_dropShadow_19_1004"/>
<feBlend mode="normal" in="SourceGraphic" in2="effect1_dropShadow_19_1004" result="shape"/>
</filter>
</defs>
</svg>
